<?xml version="1.0" encoding="UTF-8"?>
<!DOCTYPE svg PUBLIC "-//W3C//DTD SVG 1.1//EN" "http://www.w3.org/Graphics/SVG/1.1/DTD/svg11.dtd">
<svg xmlns="http://www.w3.org/2000/svg" version="1.1" width="376px" height="328px" style="shape-rendering:geometricPrecision; text-rendering:geometricPrecision; image-rendering:optimizeQuality; fill-rule:evenodd; clip-rule:evenodd" xmlns:xlink="http://www.w3.org/1999/xlink">
<g><path style="opacity:1" fill="#f6f6f6" d="M -0.5,-0.5 C 124.833,-0.5 250.167,-0.5 375.5,-0.5C 375.5,108.833 375.5,218.167 375.5,327.5C 250.167,327.5 124.833,327.5 -0.5,327.5C -0.5,218.167 -0.5,108.833 -0.5,-0.5 Z"/></g>
<g><path style="opacity:1" fill="#030303" d="M 269.5,169.5 C 252.513,170.316 235.513,170.65 218.5,170.5C 202.008,169.503 185.342,169.17 168.5,169.5C 170.125,166.551 169.292,164.551 166,163.5C 162.146,164.838 161.646,166.838 164.5,169.5C 160.298,169.183 156.298,169.517 152.5,170.5C 148.167,170.5 143.833,170.5 139.5,170.5C 127.446,170.631 115.446,169.964 103.5,168.5C 96.5667,167.953 91.0667,164.953 87,159.5C 85.466,154.16 86.6326,149.66 90.5,146C 118.914,127.126 149.248,111.959 181.5,100.5C 181.82,97.1016 181.487,93.7683 180.5,90.5C 172.228,85.0625 165.061,78.3959 159,70.5C 153.708,61.342 154.542,52.842 161.5,45C 163.888,43.1395 166.554,41.8061 169.5,41C 182.347,39.2548 194.68,40.9214 206.5,46C 211.878,55.8996 208.878,60.5663 197.5,60C 189.441,56.7956 181.107,55.7956 172.5,57C 171.328,58.8684 171.495,60.7017 173,62.5C 179.194,70.0406 186.528,76.0406 195,80.5C 195.667,81.8333 196.333,83.1667 197,84.5C 197.333,89.8333 197.667,95.1667 198,100.5C 226.027,112.263 253.193,125.763 279.5,141C 282.333,143.167 285.167,145.333 288,147.5C 292.978,156.248 290.811,162.415 281.5,166C 277.457,167.491 273.457,168.658 269.5,169.5 Z"/></g>
<g><path style="opacity:1" fill="#f4f4f4" d="M 187.5,114.5 C 214.88,125.19 241.213,138.023 266.5,153C 214.167,153.667 161.833,153.667 109.5,153C 134.359,137.737 160.359,124.904 187.5,114.5 Z"/></g>
<g><path style="opacity:1" fill="#5b1016" d="M 168.5,169.5 C 167.167,169.5 165.833,169.5 164.5,169.5C 161.646,166.838 162.146,164.838 166,163.5C 169.292,164.551 170.125,166.551 168.5,169.5 Z"/></g>
<g><path style="opacity:1" fill="#f8e4e4" d="M 269.5,169.5 C 274.637,170.068 279.637,170.734 284.5,171.5C 279.968,171.182 275.634,171.515 271.5,172.5C 271.5,180.167 271.5,187.833 271.5,195.5C 275.833,195.5 280.167,195.5 284.5,195.5C 284.5,194.167 284.5,192.833 284.5,191.5C 285.943,192.335 286.943,193.668 287.5,195.5C 288.167,187.343 288.833,179.343 289.5,171.5C 289.5,179.5 289.5,187.5 289.5,195.5C 293.5,195.5 297.5,195.5 301.5,195.5C 297.688,196.324 293.688,196.824 289.5,197C 287.639,198.073 285.806,199.24 284,200.5C 282.189,199.576 282.355,198.743 284.5,198C 283.095,196.731 281.429,196.231 279.5,196.5C 279.5,197.5 279.5,198.5 279.5,199.5C 274.895,201.413 270.895,200.579 267.5,197C 264.964,196.814 262.631,196.314 260.5,195.5C 262.167,195.5 263.833,195.5 265.5,195.5C 265.5,187.5 265.5,179.5 265.5,171.5C 264.167,171.5 262.833,171.5 261.5,171.5C 261.666,176.511 261.499,181.511 261,186.5C 258.521,182.277 256.187,177.944 254,173.5C 251.925,171.352 249.592,171.018 247,172.5C 246.5,180.159 246.334,187.826 246.5,195.5C 247.833,195.5 249.167,195.5 250.5,195.5C 248.622,196.208 246.955,197.374 245.5,199C 243.527,199.495 241.527,199.662 239.5,199.5C 239.5,198.167 239.5,196.833 239.5,195.5C 240.833,195.5 242.167,195.5 243.5,195.5C 243.737,194.209 243.404,193.209 242.5,192.5C 242.253,189.146 241.253,186.146 239.5,183.5C 238.489,179.793 237.323,176.127 236,172.5C 233.959,171.577 231.792,171.244 229.5,171.5C 226.403,178.879 224.069,186.545 222.5,194.5C 223.689,195.429 225.022,195.762 226.5,195.5C 225.081,196.451 223.415,196.784 221.5,196.5C 221.5,194.5 221.5,192.5 221.5,190.5C 218.664,189.224 215.664,188.558 212.5,188.5C 212.802,191.059 212.468,193.393 211.5,195.5C 211.5,192.5 211.5,189.5 211.5,186.5C 220.352,187.817 223.852,184.15 222,175.5C 221.082,173.624 219.582,172.624 217.5,172.5C 214.038,171.518 210.371,171.185 206.5,171.5C 206.5,179.5 206.5,187.5 206.5,195.5C 205.833,188.655 205.167,181.655 204.5,174.5C 203.549,175.326 202.549,175.492 201.5,175C 201.966,173.701 201.966,172.201 201.5,170.5C 207.167,170.5 212.833,170.5 218.5,170.5C 235.513,170.65 252.513,170.316 269.5,169.5 Z"/></g>
<g><path style="opacity:1" fill="#e97479" d="M 271.5,172.5 C 275.634,171.515 279.968,171.182 284.5,171.5C 285.833,172.833 285.833,174.167 284.5,175.5C 284.5,174.5 284.5,173.5 284.5,172.5C 280.167,172.5 275.833,172.5 271.5,172.5 Z"/></g>
<g><path style="opacity:1" fill="#e94a4d" d="M 138.5,172.5 C 140.763,177.454 142.929,182.454 145,187.5C 146.009,185.975 146.509,184.308 146.5,182.5C 148.263,179.136 149.93,175.636 151.5,172C 154.347,171.056 156.847,171.556 159,173.5C 159.5,180.826 159.666,188.159 159.5,195.5C 157.833,195.5 156.167,195.5 154.5,195.5C 154.666,189.491 154.499,183.491 154,177.5C 152.961,178.244 152.461,179.244 152.5,180.5C 147.472,200.488 142.472,200.488 137.5,180.5C 137.539,179.244 137.039,178.244 136,177.5C 135.501,183.491 135.334,189.491 135.5,195.5C 134.167,195.5 132.833,195.5 131.5,195.5C 131.5,187.5 131.5,179.5 131.5,171.5C 134.059,171.198 136.393,171.532 138.5,172.5 Z"/></g>
<g><path style="opacity:1" fill="#eb383f" d="M 271.5,172.5 C 275.833,172.5 280.167,172.5 284.5,172.5C 284.5,173.5 284.5,174.5 284.5,175.5C 281.833,175.5 279.167,175.5 276.5,175.5C 275.539,177.265 275.205,179.265 275.5,181.5C 277.698,182.165 280.031,182.832 282.5,183.5C 280.031,184.168 277.698,184.835 275.5,185.5C 275.205,187.735 275.539,189.735 276.5,191.5C 279.167,191.5 281.833,191.5 284.5,191.5C 284.5,192.833 284.5,194.167 284.5,195.5C 280.167,195.5 275.833,195.5 271.5,195.5C 271.5,187.833 271.5,180.167 271.5,172.5 Z"/></g>
<g><path style="opacity:1" fill="#dccaca" d="M 152.5,170.5 C 156.298,169.517 160.298,169.183 164.5,169.5C 165.833,169.5 167.167,169.5 168.5,169.5C 185.342,169.17 202.008,169.503 218.5,170.5C 212.833,170.5 207.167,170.5 201.5,170.5C 194.492,170.334 187.492,170.5 180.5,171C 181.252,171.671 181.586,172.504 181.5,173.5C 179.304,171.455 176.97,171.122 174.5,172.5C 173.508,179.982 173.175,187.648 173.5,195.5C 172.833,187.657 172.167,179.657 171.5,171.5C 170.502,179.807 170.169,188.14 170.5,196.5C 167.941,196.802 165.607,196.468 163.5,195.5C 162.507,187.35 162.174,179.017 162.5,170.5C 159.167,170.5 155.833,170.5 152.5,170.5 Z"/></g>
<g><path style="opacity:1" fill="#dc6166" d="M 163.5,195.5 C 163.175,187.648 163.508,179.982 164.5,172.5C 165.568,171.566 166.901,171.232 168.5,171.5C 168.5,179.5 168.5,187.5 168.5,195.5C 166.833,195.5 165.167,195.5 163.5,195.5 Z"/></g>
<g><path style="opacity:1" fill="#ee3339" d="M 164.5,172.5 C 165.5,172.5 166.5,172.5 167.5,172.5C 167.5,179.833 167.5,187.167 167.5,194.5C 166.5,194.5 165.5,194.5 164.5,194.5C 164.5,187.167 164.5,179.833 164.5,172.5 Z"/></g>
<g><path style="opacity:1" fill="#e66d72" d="M 174.5,172.5 C 174.201,180.253 174.534,187.92 175.5,195.5C 174.833,195.5 174.167,195.5 173.5,195.5C 173.175,187.648 173.508,179.982 174.5,172.5 Z"/></g>
<g><path style="opacity:1" fill="#f33138" d="M 190.5,172.5 C 192.463,179.424 193.13,186.757 192.5,194.5C 190.833,194.5 189.167,194.5 187.5,194.5C 187.579,193.07 187.246,191.736 186.5,190.5C 187.689,189.571 189.022,189.238 190.5,189.5C 190.5,183.833 190.5,178.167 190.5,172.5 Z"/></g>
<g><path style="opacity:1" fill="#e67276" d="M 187.5,194.5 C 189.167,194.5 190.833,194.5 192.5,194.5C 193.13,186.757 192.463,179.424 190.5,172.5C 189.834,177.349 189.167,182.349 188.5,187.5C 187.893,187.376 187.56,187.043 187.5,186.5C 188.487,181.695 188.821,176.695 188.5,171.5C 190.167,171.5 191.833,171.5 193.5,171.5C 193.5,179.5 193.5,187.5 193.5,195.5C 191.265,195.795 189.265,195.461 187.5,194.5 Z"/></g>
<g><path style="opacity:1" fill="#d96e71" d="M 217.5,172.5 C 214.167,172.5 210.833,172.5 207.5,172.5C 207.5,180.167 207.5,187.833 207.5,195.5C 207.167,195.5 206.833,195.5 206.5,195.5C 206.5,187.5 206.5,179.5 206.5,171.5C 210.371,171.185 214.038,171.518 217.5,172.5 Z"/></g>
<g><path style="opacity:1" fill="#f5e4e5" d="M 103.5,168.5 C 115.446,169.964 127.446,170.631 139.5,170.5C 140.172,171.267 141.005,171.934 142,172.5C 142.282,176.563 143.782,179.897 146.5,182.5C 146.509,184.308 146.009,185.975 145,187.5C 142.929,182.454 140.763,177.454 138.5,172.5C 136.393,171.532 134.059,171.198 131.5,171.5C 131.5,179.5 131.5,187.5 131.5,195.5C 132.833,195.5 134.167,195.5 135.5,195.5C 133.393,196.468 131.059,196.802 128.5,196.5C 128.649,195.448 128.483,194.448 128,193.5C 121.697,196.556 115.197,197.223 108.5,195.5C 122.373,197.786 128.539,192.119 127,178.5C 126.623,177.058 125.79,176.058 124.5,175.5C 123.657,173.827 122.324,172.66 120.5,172C 116.311,171.188 112.311,171.355 108.5,172.5C 107.508,179.982 107.175,187.648 107.5,195.5C 104.833,196.833 102.167,196.833 99.5,195.5C 101.167,195.5 102.833,195.5 104.5,195.5C 104.084,192.417 103.417,189.417 102.5,186.5C 103.859,187.007 104.859,188.007 105.5,189.5C 106.713,182.811 106.547,176.145 105,169.5C 103.913,171.932 103.413,171.598 103.5,168.5 Z"/></g>
<g><path style="opacity:1" fill="#e5595d" d="M 108.5,172.5 C 112.311,171.355 116.311,171.188 120.5,172C 122.324,172.66 123.657,173.827 124.5,175.5C 119.794,173.719 118.961,174.386 122,177.5C 122.49,178.793 122.657,180.127 122.5,181.5C 120.841,176.994 117.508,174.994 112.5,175.5C 112.5,180.833 112.5,186.167 112.5,191.5C 113.833,191.5 115.167,191.5 116.5,191.5C 115.081,192.451 113.415,192.784 111.5,192.5C 111.5,186.5 111.5,180.5 111.5,174.5C 113.857,174.663 116.19,174.497 118.5,174C 115.381,172.595 112.048,172.095 108.5,172.5 Z"/></g>
<g><path style="opacity:1" fill="#e84648" d="M 181.5,173.5 C 183.771,177.709 185.771,182.042 187.5,186.5C 187.56,187.043 187.893,187.376 188.5,187.5C 189.167,182.349 189.834,177.349 190.5,172.5C 190.5,178.167 190.5,183.833 190.5,189.5C 189.022,189.238 187.689,189.571 186.5,190.5C 187.246,191.736 187.579,193.07 187.5,194.5C 186.115,193.426 184.949,192.093 184,190.5C 183.297,186.764 181.797,183.431 179.5,180.5C 179.44,179.957 179.107,179.624 178.5,179.5C 177.505,184.792 177.172,190.125 177.5,195.5C 176.833,195.5 176.167,195.5 175.5,195.5C 174.534,187.92 174.201,180.253 174.5,172.5C 176.97,171.122 179.304,171.455 181.5,173.5 Z"/></g>
<g><path style="opacity:1" fill="#ea484c" d="M 239.5,183.5 C 240.291,186.417 240.291,189.25 239.5,192C 240.448,192.483 241.448,192.649 242.5,192.5C 243.404,193.209 243.737,194.209 243.5,195.5C 242.167,195.5 240.833,195.5 239.5,195.5C 237.824,194.817 237.157,193.483 237.5,191.5C 236.306,190.223 234.64,189.556 232.5,189.5C 227.822,188.869 225.822,190.869 226.5,195.5C 225.022,195.762 223.689,195.429 222.5,194.5C 224.069,186.545 226.403,178.879 229.5,171.5C 231.792,171.244 233.959,171.577 236,172.5C 237.323,176.127 238.489,179.793 239.5,183.5 Z"/></g>
<g><path style="opacity:1" fill="#fcd2d0" d="M 231.5,177.5 C 233.097,178.737 234.263,180.404 235,182.5C 235.49,183.793 235.657,185.127 235.5,186.5C 233.5,186.5 231.5,186.5 229.5,186.5C 229.873,183.426 230.539,180.426 231.5,177.5 Z"/></g>
<g><path style="opacity:1" fill="#ea3f43" d="M 217.5,172.5 C 219.582,172.624 221.082,173.624 222,175.5C 223.852,184.15 220.352,187.817 211.5,186.5C 211.5,189.5 211.5,192.5 211.5,195.5C 210.167,195.5 208.833,195.5 207.5,195.5C 207.5,187.833 207.5,180.167 207.5,172.5C 210.833,172.5 214.167,172.5 217.5,172.5 Z"/></g>
<g><path style="opacity:1" fill="#fce7e7" d="M 211.5,175.5 C 216.486,175.305 218.152,177.472 216.5,182C 214.866,182.494 213.199,182.66 211.5,182.5C 211.5,180.167 211.5,177.833 211.5,175.5 Z"/></g>
<g><path style="opacity:1" fill="#e8464a" d="M 260.5,195.5 C 258.825,192.755 257.158,190.088 255.5,187.5C 255.071,183.976 253.571,180.976 251,178.5C 250.501,184.157 250.334,189.824 250.5,195.5C 249.167,195.5 247.833,195.5 246.5,195.5C 246.334,187.826 246.5,180.159 247,172.5C 249.592,171.018 251.925,171.352 254,173.5C 256.187,177.944 258.521,182.277 261,186.5C 261.499,181.511 261.666,176.511 261.5,171.5C 262.833,171.5 264.167,171.5 265.5,171.5C 265.5,179.5 265.5,187.5 265.5,195.5C 263.833,195.5 262.167,195.5 260.5,195.5 Z"/></g>
<g><path style="opacity:1" fill="#fbcfd2" d="M 276.5,175.5 C 276.5,177.167 276.5,178.833 276.5,180.5C 279.5,180.5 282.5,180.5 285.5,180.5C 285.5,182.5 285.5,184.5 285.5,186.5C 282.5,186.5 279.5,186.5 276.5,186.5C 276.5,188.167 276.5,189.833 276.5,191.5C 275.539,189.735 275.205,187.735 275.5,185.5C 278.167,185.5 280.833,185.5 283.5,185.5C 283.5,184.167 283.5,182.833 283.5,181.5C 280.833,181.5 278.167,181.5 275.5,181.5C 275.205,179.265 275.539,177.265 276.5,175.5 Z"/></g>
<g><path style="opacity:1" fill="#fac2c3" d="M 255.5,187.5 C 253.955,186.77 253.122,185.437 253,183.5C 252.667,183.833 252.333,184.167 252,184.5C 251.823,188.356 251.323,192.023 250.5,195.5C 250.334,189.824 250.501,184.157 251,178.5C 253.571,180.976 255.071,183.976 255.5,187.5 Z"/></g>
<g><path style="opacity:1" fill="#faa2a4" d="M 154.5,195.5 C 153.833,190.5 153.167,185.5 152.5,180.5C 152.461,179.244 152.961,178.244 154,177.5C 154.499,183.491 154.666,189.491 154.5,195.5 Z"/></g>
<g><path style="opacity:1" fill="#de595d" d="M 275.5,181.5 C 278.167,181.5 280.833,181.5 283.5,181.5C 283.5,182.833 283.5,184.167 283.5,185.5C 280.833,185.5 278.167,185.5 275.5,185.5C 277.698,184.835 280.031,184.168 282.5,183.5C 280.031,182.832 277.698,182.165 275.5,181.5 Z"/></g>
<g><path style="opacity:1" fill="#f3abad" d="M 137.5,180.5 C 136.833,185.5 136.167,190.5 135.5,195.5C 135.334,189.491 135.501,183.491 136,177.5C 137.039,178.244 137.539,179.244 137.5,180.5 Z"/></g>
<g><path style="opacity:1" fill="#ea494c" d="M 102.5,186.5 C 103.417,189.417 104.084,192.417 104.5,195.5C 102.833,195.5 101.167,195.5 99.5,195.5C 99.7135,193.856 99.3802,192.356 98.5,191C 95.1832,190.502 91.8499,190.335 88.5,190.5C 89.1667,194.5 87.5,196.167 83.5,195.5C 84.8246,187.526 87.158,179.859 90.5,172.5C 92.6948,171.231 94.8615,171.231 97,172.5C 98.65,177.306 100.483,181.973 102.5,186.5 Z"/></g>
<g><path style="opacity:1" fill="#fbcfce" d="M 93.5,177.5 C 94.1174,177.611 94.6174,177.944 95,178.5C 95.567,181.168 96.067,183.834 96.5,186.5C 94.5,186.5 92.5,186.5 90.5,186.5C 90.6469,183.208 91.6469,180.208 93.5,177.5 Z"/></g>
<g><path style="opacity:1" fill="#f82f36" d="M 138.5,172.5 C 138.62,175.205 137.62,175.872 135.5,174.5C 134.833,181.167 134.167,187.833 133.5,194.5C 132.503,187.197 132.169,179.863 132.5,172.5C 134.5,172.5 136.5,172.5 138.5,172.5 Z"/></g>
<g><path style="opacity:1" fill="#e68b8f" d="M 179.5,180.5 C 178.833,185.5 178.167,190.5 177.5,195.5C 177.172,190.125 177.505,184.792 178.5,179.5C 179.107,179.624 179.44,179.957 179.5,180.5 Z"/></g>
<g><path style="opacity:1" fill="#e26061" d="M 239.5,183.5 C 241.253,186.146 242.253,189.146 242.5,192.5C 241.448,192.649 240.448,192.483 239.5,192C 240.291,189.25 240.291,186.417 239.5,183.5 Z"/></g>
<g><path style="opacity:1" fill="#ee4044" d="M 108.5,172.5 C 112.048,172.095 115.381,172.595 118.5,174C 116.19,174.497 113.857,174.663 111.5,174.5C 111.5,180.5 111.5,186.5 111.5,192.5C 113.415,192.784 115.081,192.451 116.5,191.5C 121.37,189.951 123.37,186.617 122.5,181.5C 122.657,180.127 122.49,178.793 122,177.5C 118.961,174.386 119.794,173.719 124.5,175.5C 125.79,176.058 126.623,177.058 127,178.5C 128.539,192.119 122.373,197.786 108.5,195.5C 108.167,195.5 107.833,195.5 107.5,195.5C 107.175,187.648 107.508,179.982 108.5,172.5 Z"/></g>
<g><path style="opacity:1" fill="#f7f0ee" d="M 122.5,181.5 C 123.37,186.617 121.37,189.951 116.5,191.5C 115.167,191.5 113.833,191.5 112.5,191.5C 112.5,186.167 112.5,180.833 112.5,175.5C 117.508,174.994 120.841,176.994 122.5,181.5 Z"/></g>
<g><path style="opacity:1" fill="#f7b4b4" d="M 237.5,191.5 C 234.609,190.597 231.609,190.264 228.5,190.5C 228.923,192.781 228.256,194.448 226.5,195.5C 225.822,190.869 227.822,188.869 232.5,189.5C 234.64,189.556 236.306,190.223 237.5,191.5 Z"/></g>
<g><path style="opacity:1" fill="#e2464b" d="M 289.5,171.5 C 290.833,171.5 292.167,171.5 293.5,171.5C 293.5,178.167 293.5,184.833 293.5,191.5C 296.5,191.5 299.5,191.5 302.5,191.5C 302.768,193.099 302.434,194.432 301.5,195.5C 297.5,195.5 293.5,195.5 289.5,195.5C 289.5,187.5 289.5,179.5 289.5,171.5 Z"/></g>
<g><path style="opacity:1" fill="#fa2d31" d="M 290.5,172.5 C 291.818,175.258 292.485,178.424 292.5,182C 292.167,185.167 291.833,188.333 291.5,191.5C 290.504,185.202 290.17,178.868 290.5,172.5 Z"/></g>
<g><path style="opacity:1" fill="#0d0d0d" d="M 102.5,197.5 C 113.983,196.822 118.483,202.155 116,213.5C 113.971,220.202 110.304,225.868 105,230.5C 103.933,241.292 104.599,251.959 107,262.5C 108.627,267.062 111.794,269.895 116.5,271C 117.167,272 117.833,273 118.5,274C 107.833,274.667 97.1667,274.667 86.5,274C 94.5,273.667 102.5,273.333 110.5,273C 106,269.171 103.167,264.338 102,258.5C 101.147,250.169 100.314,241.836 99.5,233.5C 94.2522,235.543 90.9189,233.876 89.5,228.5C 90.8678,223.922 93.8678,222.422 98.5,224C 101.859,227.432 104.692,226.932 107,222.5C 111.317,217.219 112.983,211.219 112,204.5C 111.692,203.692 111.192,203.025 110.5,202.5C 103.018,200.383 96.8518,202.383 92,208.5C 87.5137,223.444 83.1803,238.444 79,253.5C 77.1735,254.841 76.0069,254.341 75.5,252C 80.1304,234.442 84.9637,216.942 90,199.5C 91.0113,198.663 92.1779,198.33 93.5,198.5C 93.281,199.675 93.6143,200.675 94.5,201.5C 97.2585,200.121 99.9252,198.787 102.5,197.5 Z"/></g>
<g><path style="opacity:1" fill="#1b1b1b" d="M 258.5,207.5 C 259.5,207.5 260.5,207.5 261.5,207.5C 261.5,208.833 261.5,210.167 261.5,211.5C 258.046,211.733 257.046,210.4 258.5,207.5 Z"/></g>
<g><path style="opacity:1" fill="#050505" d="M 128.5,207.5 C 131.861,208.203 132.194,209.537 129.5,211.5C 127.358,210.563 127.024,209.23 128.5,207.5 Z"/></g>
<g><path style="opacity:1" fill="#0e0e0e" d="M 179.5,202.5 C 180.833,202.5 182.167,202.5 183.5,202.5C 181.068,210.954 178.568,219.288 176,227.5C 180.014,220.746 185.848,217.58 193.5,218C 195.816,220.305 197.15,223.138 197.5,226.5C 199.167,227.167 200.833,227.833 202.5,228.5C 204.539,224.264 207.206,220.431 210.5,217C 219.333,213.833 222.167,216.667 219,225.5C 215.433,228.702 211.266,230.368 206.5,230.5C 207.509,238.502 211.509,240.336 218.5,236C 221.333,233.167 224.167,230.333 227,227.5C 228.732,223.637 230.066,219.637 231,215.5C 232.011,214.663 233.178,214.33 234.5,214.5C 234.08,216.674 234.08,218.674 234.5,220.5C 238.26,216.82 242.593,215.82 247.5,217.5C 248.583,218.365 248.749,219.365 248,220.5C 240.994,220.013 235.661,223.013 232,229.5C 229.724,234.392 227.224,239.059 224.5,243.5C 223.28,243.113 222.613,242.28 222.5,241C 223.187,239.838 223.353,238.672 223,237.5C 213.208,245.512 206.042,243.678 201.5,232C 199.863,231.399 198.197,230.899 196.5,230.5C 193.377,234.125 190.044,237.625 186.5,241C 178.221,242.812 176.388,239.979 181,232.5C 184.378,229.977 188.045,227.977 192,226.5C 192.946,224.044 192.446,222.044 190.5,220.5C 186.894,222.603 183.727,225.269 181,228.5C 176.969,234.366 173.136,240.366 169.5,246.5C 167.554,244.956 167.054,242.956 168,240.5C 171.338,227.654 175.172,214.987 179.5,202.5 Z"/></g>
<g><path style="opacity:1" fill="#0c0c0c" d="M 137.5,215.5 C 140.766,215.433 142.266,217.099 142,220.5C 145.909,216.314 149.409,216.647 152.5,221.5C 154.546,218.812 157.213,217.145 160.5,216.5C 162.912,216.406 164.745,217.406 166,219.5C 167.529,232.197 164.862,243.864 158,254.5C 157.056,253.737 156.556,252.737 156.5,251.5C 158.837,245.657 160.67,239.657 162,233.5C 162.796,229.245 162.629,225.079 161.5,221C 159.837,220.735 158.337,221.235 157,222.5C 152.635,228.899 149.635,235.899 148,243.5C 146.989,244.337 145.822,244.67 144.5,244.5C 146.149,237.236 147.482,229.903 148.5,222.5C 145.675,222.081 143.509,223.081 142,225.5C 139.473,232.08 137.14,238.747 135,245.5C 133.989,246.337 132.822,246.67 131.5,246.5C 131.573,243.318 132.073,240.318 133,237.5C 129.463,242.06 125.297,243.06 120.5,240.5C 119.34,232.456 121.006,224.956 125.5,218C 126.448,217.517 127.448,217.351 128.5,217.5C 127.513,222.296 126.013,226.963 124,231.5C 123.149,234.053 123.482,236.386 125,238.5C 134.401,233.699 138.568,226.033 137.5,215.5 Z"/></g>
<g><path style="opacity:1" fill="#0b0b0b" d="M 276.5,216.5 C 286.654,216.322 291.32,221.322 290.5,231.5C 293.528,231.661 296.361,230.994 299,229.5C 300.059,229.63 300.892,230.13 301.5,231C 297.662,234.746 292.996,236.413 287.5,236C 283.201,242.333 277.534,244.333 270.5,242C 268.263,239.97 266.763,237.47 266,234.5C 263.833,236.667 261.667,238.833 259.5,241C 251.773,243.615 248.606,240.782 250,232.5C 251.47,227.757 253.136,223.091 255,218.5C 256.011,217.663 257.178,217.33 258.5,217.5C 256.999,223.348 255.333,229.181 253.5,235C 253.388,236.662 254.054,237.829 255.5,238.5C 261.376,234.756 265.876,229.756 269,223.5C 271.396,220.933 273.896,218.6 276.5,216.5 Z"/></g>
<g><path style="opacity:1" fill="#e1e1e1" d="M 214.5,218.5 C 216.84,219.572 217.173,221.239 215.5,223.5C 213.709,225.46 211.543,226.793 209,227.5C 208.333,226.5 208.333,225.5 209,224.5C 210.626,222.195 212.46,220.195 214.5,218.5 Z"/></g>
<g><path style="opacity:1" fill="#e4e4e4" d="M 282.5,221.5 C 286.049,222.957 287.216,225.623 286,229.5C 281.814,228.049 280.647,225.383 282.5,221.5 Z"/></g>
<g><path style="opacity:1" fill="#f1f1f1" d="M 276.5,220.5 C 277.376,220.369 278.043,220.702 278.5,221.5C 277.182,223.912 277.349,226.246 279,228.5C 280.344,230.342 281.844,232.008 283.5,233.5C 280.745,238.825 276.911,240.158 272,237.5C 269.357,230.773 270.857,225.106 276.5,220.5 Z"/></g>
<g><path style="opacity:1" fill="#e9e9e9" d="M 93.5,227.5 C 95.4286,227.231 97.0953,227.731 98.5,229C 95.9634,231.209 94.2967,230.709 93.5,227.5 Z"/></g>
<g><path style="opacity:1" fill="#cecece" d="M 185.5,233.5 C 186.376,233.369 187.043,233.702 187.5,234.5C 186.379,237.047 184.712,238.047 182.5,237.5C 183.524,236.148 184.524,234.815 185.5,233.5 Z"/></g>
<g><path style="opacity:1" fill="#1d1d1d" d="M 178.5,265.5 C 180.048,265.821 180.715,266.821 180.5,268.5C 184.5,268.833 184.5,269.167 180.5,269.5C 180.336,272.187 180.503,274.854 181,277.5C 181.75,278.126 182.584,278.626 183.5,279C 181.633,279.711 180.133,279.211 179,277.5C 178.999,274.313 178.166,271.48 176.5,269C 177.973,268.29 178.64,267.124 178.5,265.5 Z"/></g>
<g><path style="opacity:1" fill="#090909" d="M 227.5,282.5 C 228.582,281.406 229.248,280.073 229.5,278.5C 229.376,276.049 229.042,273.549 228.5,271C 229.126,270.25 229.626,269.416 230,268.5C 230.667,272.833 230.667,277.167 230,281.5C 229.329,282.252 228.496,282.586 227.5,282.5 Z"/></g>
<g><path style="opacity:1" fill="#171717" d="M 166.5,268.5 C 174.168,268.507 176.168,271.84 172.5,278.5C 166.197,280.363 163.364,278.03 164,271.5C 164.698,270.309 165.531,269.309 166.5,268.5 Z"/></g>
<g><path style="opacity:1" fill="#131313" d="M 186.5,264.5 C 188.117,265.589 188.95,267.256 189,269.5C 191.333,268.167 193.667,268.167 196,269.5C 196.667,272.833 196.667,276.167 196,279.5C 195.667,276.833 195.333,274.167 195,271.5C 193,268.833 191,268.833 189,271.5C 188.818,274.226 188.318,276.893 187.5,279.5C 186.506,274.544 186.173,269.544 186.5,264.5 Z"/></g>
<g><path style="opacity:1" fill="#151515" d="M 147.5,268.5 C 150.665,267.964 153.331,268.797 155.5,271C 153.822,270.888 152.155,270.388 150.5,269.5C 146.089,271.141 145.423,273.808 148.5,277.5C 151.035,278.503 153.202,277.837 155,275.5C 154.532,279.182 152.365,280.349 148.5,279C 144.945,275.828 144.611,272.328 147.5,268.5 Z"/></g>
<g><path style="opacity:1" fill="#0e0e0e" d="M 200.5,268.5 C 201.787,269.871 202.453,271.705 202.5,274C 202.167,275.833 201.833,277.667 201.5,279.5C 200.511,275.893 200.177,272.226 200.5,268.5 Z"/></g>
<g><path style="opacity:1" fill="#1d1d1d" d="M 206.5,268.5 C 209.393,268.556 212.393,268.889 215.5,269.5C 216.585,272.773 216.752,276.106 216,279.5C 215.667,276.833 215.333,274.167 215,271.5C 213,268.833 211,268.833 209,271.5C 208.818,274.226 208.318,276.893 207.5,279.5C 206.511,275.893 206.177,272.226 206.5,268.5 Z"/></g>
<g><path style="opacity:1" fill="#0f0f0f" d="M 158.5,264.5 C 159.809,266.571 160.475,269.071 160.5,272C 160.167,274.5 159.833,277 159.5,279.5C 158.506,274.544 158.173,269.544 158.5,264.5 Z"/></g>
<g><path style="opacity:1" fill="#e4e4e4" d="M 167.5,269.5 C 170.779,269.305 172.779,270.805 173.5,274C 170.5,280 167.5,280 164.5,274C 164.957,272.06 165.957,270.56 167.5,269.5 Z"/></g>
<g><path style="opacity:1" fill="#1b1b1b" d="M 222.5,268.5 C 228.208,268.492 228.541,268.992 223.5,270C 219.984,275.079 221.317,277.746 227.5,278C 222.932,279.65 220.266,278.15 219.5,273.5C 219.757,271.308 220.757,269.641 222.5,268.5 Z"/></g>
<g><path style="opacity:1" fill="#131313" d="M 227.5,282.5 C 224.633,284.121 222.3,283.454 220.5,280.5C 221.574,279.92 222.574,280.42 223.5,282C 224.793,282.49 226.127,282.657 227.5,282.5 Z"/></g>
</svg>
